PathFileType	4	(X/Y/Z)	C:/Users/opensim2020/Desktop/walking_exp_matlab/subject06_walking19_straight_01.trc	
DataRate	CameraRate	NumFrames	NumMarkers	Units	OrigDataRate	OrigDataStartFrame	OrigNumFrames	
100.00	100.00	8	49	mm	100.00	1215	472	
Frame#	Time	LFHD			RFHD			LBHD			RBHD			C7			T10			CLAV			STRN			RBAK			LSHO			LUPA			LELB			LFRM			LWRA			LWRB			LFIN			RSHO			RUPA			RELB			RFRM			RWRA			RWRB			RFIN			LASI			RASI			LPSI			RPSI			LTHI			LKNE			LTIB			LANK			LHEE			LTOE			RTHI			RKNE			RTIB			RANK			RHEE			RTOE			*39			*40			*41			*42			*43			*44			*45			*46			*47			*48			
		X1	Y1	Z1	X2	Y2	Z2	X3	Y3	Z3	X4	Y4	Z4	X5	Y5	Z5	X6	Y6	Z6	X7	Y7	Z7	X8	Y8	Z8	X9	Y9	Z9	X10	Y10	Z10	X11	Y11	Z11	X12	Y12	Z12	X13	Y13	Z13	X14	Y14	Z14	X15	Y15	Z15	X16	Y16	Z16	X17	Y17	Z17	X18	Y18	Z18	X19	Y19	Z19	X20	Y20	Z20	X21	Y21	Z21	X22	Y22	Z22	X23	Y23	Z23	X24	Y24	Z24	X25	Y25	Z25	X26	Y26	Z26	X27	Y27	Z27	X28	Y28	Z28	X29	Y29	Z29	X30	Y30	Z30	X31	Y31	Z31	X32	Y32	Z32	X33	Y33	Z33	X34	Y34	Z34	X35	Y35	Z35	X36	Y36	Z36	X37	Y37	Z37	X38	Y38	Z38	X39	Y39	Z39	X40	Y40	Z40	X41	Y41	Z41	X42	Y42	Z42	X43	Y43	Z43	X44	Y44	Z44	X45	Y45	Z45	X46	Y46	Z46	X47	Y47	Z47	X48	Y48	Z48	X49	Y49	Z49	

355	3.540	1327.63660	682.96106	1657.28711	1458.92139	681.91327	1646.61829	1325.77637	551.46381	1598.73926	1455.07739	550.96558	1592.87830	1380.43958	550.96198	1446.78064	1387.43408	509.61444	1118.66919	1385.24402	657.47180	1365.80444	1378.84131	692.06525	1188.69092	1455.23975	469.93057	1277.73535	1221.91223	611.29523	1398.98560	1151.90259	625.99231	1195.87463	1143.58740	637.84918	1082.78162	1145.31128	709.76410	949.15692	1212.38501	796.70209	870.28009	1168.71533	750.30499	839.74658	1186.94250	815.76978	779.60767	1544.08374	607.61566	1398.29663	1629.64783	557.65942	1201.61511	1641.24036	560.61536	1079.37415	1657.76111	572.74719	959.60126	1625.38037	629.43488	818.90002	1665.51318	576.22937	821.87311	1668.24573	611.72931	745.53741	1280.69836	678.25275	948.37231	1502.78503	681.71246	962.76141	1312.10132	522.20770	985.98010	1480.31458	530.17261	989.66199	1243.21069	560.50403	642.98553	1268.92004	523.51489	483.01938	1291.28760	426.39700	243.77403	1347.54712	388.35434	77.28857	1395.11353	347.42447	70.16914	1345.24426	528.93915	37.93129	1568.42493	682.67584	639.83075	1538.42432	719.32898	522.48187	1548.65356	751.59637	260.65305	1510.76331	801.00342	79.31561	1464.56372	771.45685	46.91791	1507.94922	959.39984	76.12668	1384.89343	580.09235	1692.28748																											 
356	3.550	1329.16833	689.14746	1657.04419	1460.24500	687.91400	1645.88574	1327.38428	557.74530	1598.37366	1456.72644	557.31018	1592.14441	1381.66760	557.54651	1446.23303	1388.41907	516.26666	1118.29370	1386.19727	663.94733	1365.47424	1379.37305	698.58948	1188.31787	1456.19775	476.60284	1277.15027	1223.03223	617.53680	1398.84949	1153.03381	632.12988	1195.75952	1144.99133	643.42310	1082.58179	1146.58179	715.51617	948.86230	1214.11462	802.17529	870.03967	1170.45020	755.72534	839.40533	1188.94324	821.12738	779.24164	1545.13574	614.22217	1397.59155	1630.43970	564.15375	1200.87292	1641.93591	567.11853	1078.63745	1658.35974	579.08429	958.82910	1625.89990	635.67255	818.11035	1666.02893	582.42755	821.11786	1669.14819	618.42004	744.94592	1280.84460	684.46960	948.01636	1502.90808	689.13593	962.25745	1313.03528	528.55054	985.57343	1481.19629	537.50964	989.16760	1243.33350	565.35907	642.97852	1269.11194	527.59155	483.16907	1291.39514	428.28970	244.75693	1347.44800	388.77228	78.40054	1394.87292	348.01151	71.52692	1345.09155	529.01447	37.90014	1569.14233	689.16699	638.88989	1538.79883	725.61670	521.67554	1548.91675	757.32880	259.82300	1510.89905	806.43768	78.23655	1464.81335	776.67560	45.90831	1507.10742	964.64001	74.74877	1386.72961	586.39282	1691.80151																											 
357	3.560	1330.87756	695.48883	1656.85083	1461.91382	694.42145	1645.29492	1329.06750	564.10840	1598.14148	1458.30554	563.81238	1591.55078	1382.96875	563.84296	1445.83887	1389.58704	523.04138	1117.84546	1387.17432	670.50403	1365.05212	1379.93945	705.30652	1188.01318	1457.34888	483.40228	1276.57349	1224.25439	623.70184	1398.75122	1154.16516	638.24207	1195.71643	1146.33862	649.18536	1082.43579	1148.44141	720.77203	948.70831	1215.74207	807.67657	869.81818	1172.07849	761.27747	839.27893	1190.87354	826.47742	778.90063	1546.30188	620.93921	1396.96790	1631.35767	570.82214	1200.19373	1642.63477	573.74536	1077.89050	1658.99646	585.59088	958.09564	1626.44324	642.04028	817.33142	1666.59192	588.81476	820.38544	1669.27954	624.28339	744.06256	1280.92993	690.71857	947.64502	1503.10645	696.73883	961.74878	1314.06921	535.09326	985.23468	1482.13025	545.06464	988.78992	1243.44519	570.19202	643.01007	1269.29993	531.98364	483.24716	1291.41809	430.26718	245.72256	1347.38110	389.22760	79.60690	1394.90723	348.60654	73.04259	1344.89673	529.11945	37.87627	1569.77515	695.59149	637.92242	1539.25513	731.89606	520.83813	1549.49683	763.16748	258.99121	1511.27808	811.23749	77.13292	1465.98096	781.19818	45.14495	1506.24194	969.60754	72.82953	1388.69080	592.73016	1691.36975																											 
358	3.570	1332.67810	701.81372	1656.62317	1463.62378	700.94891	1644.74988	1330.86450	570.36279	1598.00867	1460.05273	570.35333	1591.03186	1384.52417	570.31561	1445.33484	1390.79456	530.02753	1117.39587	1388.16663	677.08295	1364.69788	1380.53638	712.13452	1187.73694	1458.61804	490.31668	1275.88220	1225.46777	629.73950	1398.67224	1155.56470	644.34045	1195.64026	1147.52820	655.28845	1082.38123	1149.35632	727.02441	948.53705	1217.30371	813.29089	869.64032	1173.62390	766.89508	839.04938	1192.67798	831.86694	778.59821	1547.49304	627.74774	1396.35376	1632.31653	577.54865	1199.51416	1643.55750	580.39709	1077.25012	1659.70471	592.17206	957.41406	1626.94678	648.48590	816.57562	1667.11475	595.29645	819.66736	1670.00867	630.99658	743.41052	1281.18591	697.13434	947.25549	1503.29089	704.50281	961.21240	1315.14905	541.87988	984.94550	1483.18396	552.71814	988.46808	1243.69519	575.17999	642.96588	1269.42651	536.57819	483.31491	1291.48523	432.38397	246.75569	1347.25439	389.81442	80.86929	1394.87158	349.25748	74.75996	1344.69250	529.22369	37.86515	1570.49915	702.22797	637.04437	1539.68042	738.07916	520.01215	1549.93115	768.36017	257.99533	1511.61853	815.38544	75.83940	1466.87805	784.21326	45.13258	1505.43079	973.87756	70.40340	1390.65381	599.19244	1690.99023																											 
359	3.580	1334.47046	708.27631	1656.48706	1465.41687	707.56427	1644.22083	1332.62476	576.83960	1597.86877	1461.82300	576.73358	1590.49048	1386.04309	576.85022	1444.89563	1392.16040	537.11810	1116.87476	1389.30823	683.76404	1364.43445	1381.20935	719.11798	1187.54041	1460.04834	497.33240	1275.14563	1226.76904	635.78564	1398.60535	1156.63977	650.42755	1195.67200	1148.88416	661.10107	1082.31470	1150.96143	732.36359	948.38324	1218.81445	818.97913	869.53381	1175.14063	772.48877	838.88153	1194.36877	837.24939	778.31836	1548.76746	634.64905	1395.75647	1633.36646	584.39746	1198.84802	1644.47717	587.17554	1076.58081	1660.45447	598.88141	956.71143	1627.46863	655.04089	815.83624	1667.83081	602.00378	819.03638	1670.59082	637.64545	742.72803	1281.46460	703.66669	946.88971	1503.54846	712.43011	960.65674	1316.36902	548.67804	984.67889	1484.33984	560.66626	988.11804	1244.00159	580.29633	642.93591	1269.71545	541.37842	483.35822	1291.61218	434.69632	247.82632	1347.16089	390.41434	82.26308	1394.65686	349.80988	76.38950	1344.53979	529.34021	37.80652	1570.78870	708.61346	636.11353	1540.01135	744.29016	519.17896	1550.18762	773.08813	256.92636	1511.76660	818.77997	74.43923	1467.06030	786.64197	44.66611	1504.28516	976.77911	65.84330	1392.67529	605.75415	1690.73547																											 
360	3.590	1336.26465	714.85919	1656.44275	1467.57800	714.65106	1643.90063	1334.44666	583.32275	1597.80090	1463.58533	583.45410	1590.08484	1387.59644	583.24335	1444.59045	1393.61462	544.50958	1116.31372	1390.46667	690.55847	1364.23840	1381.92578	726.23810	1187.41406	1461.62805	504.47891	1274.34338	1228.10547	641.82513	1398.61414	1157.96765	656.33777	1195.62646	1150.43298	666.74335	1082.23352	1152.37317	738.24353	948.16620	1220.16589	824.72729	869.46826	1176.45825	778.31329	838.97992	1195.90320	843.01776	778.17279	1550.12427	641.68457	1395.20911	1634.50220	591.42029	1198.22388	1645.47034	594.11749	1075.90466	1661.17505	605.83630	955.96210	1628.08752	661.78143	815.14520	1668.22461	608.58514	818.21893	1670.69177	643.84967	741.78290	1281.78613	710.32837	946.54950	1503.81726	720.46021	960.12482	1317.61450	555.53485	984.52832	1485.64014	568.64862	988.04077	1244.45239	585.77643	642.95996	1270.08350	546.38037	483.45187	1291.73279	437.19336	248.99873	1347.03625	391.08817	83.76134	1394.41211	350.45255	78.26298	1344.30603	529.47009	37.86795	1571.35791	715.59485	635.55121	1540.33472	750.68646	518.45850	1550.42651	777.82422	256.05133	1511.82629	820.84460	73.31614	1466.76001	787.77795	45.04140	1503.45081	978.79242	59.06374	1394.71619	612.33270	1690.48669																											 
361	3.600	1338.18213	721.31696	1656.56982	1469.11890	720.95288	1643.60205	1336.37146	589.85132	1597.85083	1465.41736	590.19263	1589.79773	1389.29785	589.90863	1444.38269	1395.01184	551.81671	1115.95874	1391.68628	697.38440	1364.19116	1382.67358	733.32013	1187.38281	1463.26477	511.65686	1273.63586	1229.45959	647.96735	1398.73389	1159.21875	662.25739	1195.59583	1151.68640	672.77930	1082.19751	1153.60315	744.09692	948.25720	1221.37842	830.57593	869.35364	1177.72913	784.13330	838.72198	1197.29956	848.75763	777.98621	1551.58569	648.86053	1394.72083	1635.75342	598.62189	1197.67053	1646.53821	601.27924	1075.29834	1662.00195	612.85840	955.29083	1628.63440	668.65619	814.49670	1668.83740	615.46216	817.54651	1671.14856	650.68201	741.08002	1282.10828	717.17133	946.26599	1504.15149	728.53070	959.76227	1318.92578	562.61493	984.40149	1487.05249	576.52557	988.24982	1245.03442	591.39685	642.95923	1270.61401	551.62000	483.63937	1291.94849	439.75705	250.29930	1346.80164	391.91669	85.46149	1394.30261	351.31708	80.59515	1344.22144	529.64807	37.83935	1572.04858	722.88910	635.36804	1540.96472	757.47205	518.31219	1550.81299	782.32336	255.48289	1512.15979	822.27643	72.71224	1466.90771	788.45074	45.71825	1502.00146	979.85614	51.31343	1396.85474	618.89465	1690.38367																											 
362	3.610	1340.12341	727.85999	1656.91321	1471.00891	727.67120	1643.64270	1338.31934	596.39288	1598.07666	1467.33386	596.97437	1589.69653	1391.02759	596.66913	1444.45337	1396.24915	559.33600	1115.70471	1392.92212	704.27905	1364.38672	1383.47302	740.44080	1187.57056	1465.02026	518.91235	1273.10449	1230.73425	654.00549	1398.93250	1160.58801	668.05664	1195.61145	1153.05432	678.58844	1082.21240	1154.86572	749.83624	948.16656	1222.54065	836.48413	869.25897	1178.76062	790.07642	838.87805	1198.45129	854.43549	777.78741	1553.11633	656.18652	1394.35803	1637.03711	605.97076	1197.14771	1647.57983	608.65924	1074.70911	1662.86035	620.08368	954.70184	1629.15540	675.58575	813.86334	1669.42151	622.49847	816.95129	1671.57190	657.51556	740.44299	1282.46082	724.08844	946.07281	1504.57239	736.61609	959.65656	1320.16479	569.79651	984.43738	1488.34509	584.41858	988.78802	1245.75610	597.33667	643.03839	1271.28186	557.12543	483.89688	1292.16980	442.51093	251.86453	1346.57007	392.76318	87.41982	1393.80664	352.07065	82.91190	1344.19177	529.96539	37.79726	1572.78992	730.57074	635.76624	1541.75574	764.26288	518.53326	1551.57483	786.57153	255.41258	1512.46130	824.32269	72.37064	1467.71594	789.25757	46.63409	1500.20203	981.34814	46.54266	1398.93262	625.42645	1690.46106																											 
